<?xml version="1.0" encoding="UTF-8" standalone="no" ?>
<!DOCTYPE svg PUBLIC "-//W3C//DTD SVG 1.1//EN" "http://www.w3.org/Graphics/SVG/1.1/DTD/svg11.dtd">
<svg xmlns="http://www.w3.org/2000/svg" xmlns:xlink="http://www.w3.org/1999/xlink" version="1.1" width="1280" height="1024" viewBox="0 0 1280 1024" xml:space="preserve">
<desc>Created with Fabric.js 3.6.3</desc>
<defs>
</defs>
<g transform="matrix(1.9692780337941629 0 0 1.9692780337941629 640.0153846153846 512.012312418764)" id="background-logo"  >
<rect style="stroke: none; stroke-width: 1; stroke-dasharray: none; stroke-linecap: butt; stroke-dashoffset: 0; stroke-linejoin: miter; stroke-miterlimit: 4; fill: rgb(255,251,243); fill-rule: nonzero; opacity: 1;"  paint-order="stroke"  x="-325" y="-260" rx="0" ry="0" width="650" height="520" />
</g>
<g transform="matrix(1.9692780337941629 0 0 1.9692780337941629 640.0153846153846 737.7447682546737)" id="text-logo-path"  >
<path style="stroke: none; stroke-width: 0; stroke-dasharray: none; stroke-linecap: butt; stroke-dashoffset: 0; stroke-linejoin: miter; stroke-miterlimit: 4; fill: rgb(97,79,54); fill-rule: nonzero; opacity: 1;"  paint-order="stroke"  transform=" translate(-259.815, 26.645)" d="M 6.97 -10.25 L 6.97 -10.25 L 6.97 -43.04 Q 6.97 -48.53 10.33 -51.53 Q 13.69 -54.53 20.42 -54.53 Q 27.15 -54.53 30.59 -51.53 Q 34.03 -48.53 34.03 -43.04 L 34.03 -43.04 L 34.03 -35.27 L 28.31 -35.27 L 28.31 -43.04 Q 28.31 -49.61 20.5 -49.61 Q 12.69 -49.61 12.69 -43.04 L 12.69 -43.04 L 12.69 -10.25 Q 12.69 -3.68 20.5 -3.68 Q 28.31 -3.68 28.31 -10.25 L 28.31 -10.25 L 28.31 -14.77 L 34.03 -14.77 L 34.03 -10.25 Q 34.03 -4.76 30.67 -1.76 Q 27.31 1.24 20.58 1.24 Q 13.85 1.24 10.41 -1.76 Q 6.97 -4.76 6.97 -10.25 Z M 47.13 -10.25 L 47.13 -10.25 L 47.13 -43.04 Q 47.13 -48.53 50.61 -51.53 Q 54.09 -54.53 61.02 -54.53 Q 67.95 -54.53 71.47 -51.53 Q 74.99 -48.53 74.99 -43.04 L 74.99 -43.04 L 74.99 -10.25 Q 74.99 -4.76 71.51 -1.76 Q 68.03 1.24 61.1 1.24 Q 54.17 1.24 50.65 -1.76 Q 47.13 -4.76 47.13 -10.25 Z M 52.85 -43.04 L 52.85 -10.25 Q 52.85 -3.68 61.06 -3.68 Q 69.27 -3.68 69.27 -10.25 L 69.27 -10.25 L 69.27 -43.04 Q 69.27 -49.61 61.06 -49.61 Q 52.85 -49.61 52.85 -43.04 L 52.85 -43.04 Z M 88.93 -10.25 L 88.93 -10.25 L 88.93 -43.04 Q 88.93 -48.53 92.41 -51.53 Q 95.89 -54.53 102.82 -54.53 Q 109.75 -54.53 113.27 -51.53 Q 116.79 -48.53 116.79 -43.04 L 116.79 -43.04 L 116.79 -10.25 Q 116.79 -4.76 113.31 -1.76 Q 109.83 1.24 102.9 1.24 Q 95.97 1.24 92.45 -1.76 Q 88.93 -4.76 88.93 -10.25 Z M 94.65 -43.04 L 94.65 -10.25 Q 94.65 -3.68 102.86 -3.68 Q 111.07 -3.68 111.07 -10.25 L 111.07 -10.25 L 111.07 -43.04 Q 111.07 -49.61 102.86 -49.61 Q 94.65 -49.61 94.65 -43.04 L 94.65 -43.04 Z M 137.77 0 L 132.05 0 L 132.05 -53.29 L 137.77 -53.29 L 137.77 -30.67 L 152.07 -53.29 L 158.43 -53.29 L 143.94 -30.35 L 159.44 0 L 153.11 0 L 140.5 -24.86 L 137.77 -20.5 L 137.77 0 Z M 174.97 0 L 169.25 0 L 169.25 -53.29 L 174.97 -53.29 L 174.97 0 Z M 197.07 0 L 191.35 0 L 191.35 -53.29 L 193.79 -53.29 L 195.83 -47.97 Q 199.75 -54.53 206.76 -54.53 L 206.76 -54.53 Q 218.81 -54.53 218.81 -43.04 L 218.81 -43.04 L 218.81 0 L 213.09 0 L 213.09 -43.04 Q 213.09 -46.17 211.73 -47.89 Q 210.37 -49.61 206.76 -49.61 Q 203.16 -49.61 200.12 -46.83 Q 197.07 -44.04 197.07 -41.4 L 197.07 -41.4 L 197.07 0 Z M 233.15 -10.25 L 233.15 -10.25 L 233.15 -43.04 Q 233.15 -48.53 236.51 -51.53 Q 239.87 -54.53 246.6 -54.53 Q 253.33 -54.53 256.77 -51.53 Q 260.21 -48.53 260.21 -43.04 L 260.21 -43.04 L 260.21 -38.56 L 254.49 -38.56 L 254.49 -43.04 Q 254.49 -49.61 246.68 -49.61 Q 238.87 -49.61 238.87 -43.04 L 238.87 -43.04 L 238.87 -10.25 Q 238.87 -3.68 246.68 -3.68 Q 254.49 -3.68 254.49 -10.25 L 254.49 -10.25 L 254.49 -22.14 L 245.28 -22.14 L 245.28 -27.07 L 260.21 -27.07 L 260.21 -10.25 Q 260.21 -4.76 256.85 -1.76 Q 253.49 1.24 246.76 1.24 Q 240.03 1.24 236.59 -1.76 Q 233.15 -4.76 233.15 -10.25 Z M 293.01 -10.25 L 293.01 -10.25 L 293.01 -43.04 Q 293.01 -48.53 296.49 -51.53 Q 299.97 -54.53 306.9 -54.53 Q 313.83 -54.53 317.35 -51.53 Q 320.87 -48.53 320.87 -43.04 L 320.87 -43.04 L 320.87 -10.25 Q 320.87 -4.76 317.39 -1.76 Q 313.91 1.24 306.98 1.24 Q 300.05 1.24 296.53 -1.76 Q 293.01 -4.76 293.01 -10.25 Z M 298.73 -43.04 L 298.73 -10.25 Q 298.73 -3.68 306.94 -3.68 Q 315.15 -3.68 315.15 -10.25 L 315.15 -10.25 L 315.15 -43.04 Q 315.15 -49.61 306.94 -49.61 Q 298.73 -49.61 298.73 -43.04 L 298.73 -43.04 Z M 341.77 0 L 336.05 0 L 336.05 -53.29 L 338.49 -53.29 L 340.53 -47.97 Q 344.46 -54.53 351.46 -54.53 L 351.46 -54.53 Q 363.51 -54.53 363.51 -43.04 L 363.51 -43.04 L 363.51 0 L 357.79 0 L 357.79 -43.04 Q 357.79 -46.17 356.43 -47.89 Q 355.07 -49.61 351.46 -49.61 Q 347.86 -49.61 344.82 -46.83 Q 341.77 -44.04 341.77 -41.4 L 341.77 -41.4 L 341.77 0 Z M 403.67 0 L 397.95 0 L 397.95 -53.29 L 420.49 -53.29 L 420.49 -48.37 L 403.67 -48.37 L 403.67 -29.51 L 417.21 -29.51 L 417.21 -24.58 L 403.67 -24.58 L 403.67 0 Z M 437.67 0 L 431.94 0 L 431.94 -53.29 L 437.67 -53.29 L 437.67 0 Z M 459.77 0 L 454.04 0 L 454.04 -53.29 L 456.49 -53.29 L 458.89 -47.25 Q 461.53 -54.53 467.26 -54.53 L 467.26 -54.53 Q 477.03 -54.53 476.99 -43.88 L 476.99 -43.88 L 476.99 -38.56 L 471.5 -38.56 L 471.5 -44.2 Q 471.5 -49.61 466.98 -49.61 L 466.98 -49.61 Q 464.25 -49.61 462.01 -46.49 Q 459.77 -43.36 459.77 -37.48 L 459.77 -37.48 L 459.77 0 Z M 485.59 -10.25 L 485.59 -10.25 L 485.59 -43.04 Q 485.59 -48.53 488.96 -51.53 Q 492.32 -54.53 499.05 -54.53 Q 505.77 -54.53 509.22 -51.53 Q 512.66 -48.53 512.66 -43.04 L 512.66 -43.04 L 512.66 -25.02 L 491.32 -25.02 L 491.32 -10.25 Q 491.32 -3.68 499.13 -3.68 Q 506.93 -3.68 506.93 -10.25 L 506.93 -10.25 L 506.93 -14.77 L 512.66 -14.77 L 512.66 -10.25 Q 512.66 -4.76 509.3 -1.76 Q 505.93 1.24 499.21 1.24 Q 492.48 1.24 489.04 -1.76 Q 485.59 -4.76 485.59 -10.25 Z M 491.32 -43.04 L 491.32 -29.95 L 506.93 -29.95 L 506.93 -43.04 Q 506.93 -49.61 499.13 -49.61 Q 491.32 -49.61 491.32 -43.04 L 491.32 -43.04 Z" stroke-linecap="round" />
</g>
<g transform="matrix(1.5359226522333578 0 0 1.5359226522333584 640.0153846153847 401.73268565483033)" id="logo-logo"  >
<g style=""  paint-order="stroke"   >
		<g transform="matrix(18.261388234878527 0 0 -11.544846974703894 0 -36.77308529510469)"  >
<path style="stroke: none; stroke-width: 1; stroke-dasharray: none; stroke-linecap: butt; stroke-dashoffset: 0; stroke-linejoin: miter; stroke-miterlimit: 4; fill: rgb(218,208,187); fill-rule: nonzero; opacity: 1;"  paint-order="stroke"  transform=" translate(1.333659355390469, 1.2029999999999994)" d="m 0 0 c -0.03 -0.14 -0.08 -0.281 -0.115 -0.422 c -0.064 -0.141 -0.121 -0.285 -0.178 -0.43 c -0.086 -0.141 -0.163 -0.287 -0.239 -0.434 c -0.09 -0.137 -0.189 -0.265 -0.272 -0.404 c -0.195 -0.279 -0.51 -0.653 -0.732 -0.955 c -0.138 -0.194 -0.282 -0.376 -0.409 -0.578 c -0.121 -0.208 -0.229 -0.423 -0.34 -0.632 c -0.035 -0.079 -0.066 -0.158 -0.097 -0.237 c -0.019 0.061 -0.039 0.119 -0.059 0.183 c -0.07 0.233 -0.118 0.498 -0.16 0.773 c -0.01 0.136 -0.021 0.279 -0.033 0.426 c 0.012 0.147 0.001 0.292 0.017 0.44 c 0.032 0.298 0.093 0.598 0.193 0.9 c 0.069 0.147 0.099 0.302 0.179 0.451 c 0.081 0.148 0.146 0.3 0.228 0.451 c 0.095 0.149 0.195 0.293 0.283 0.447 c 0.098 0.148 0.22 0.291 0.33 0.436 c 0.264 0.379 0.497 0.646 0.742 1.064 c 0.119 0.21 0.238 0.421 0.336 0.635 C -0.249 1.956 -0.171 1.768 -0.098 1.558 C -0.065 1.443 -0.021 1.329 -0.007 1.2 C 0.021 1.076 0.046 0.95 0.048 0.816 C 0.079 0.555 0.048 0.276 0 0 M 1.405 -0.044 C 1.361 0.397 1.256 0.806 1.082 1.14 C 0.926 1.481 0.701 1.74 0.503 1.945 C 0.305 2.154 0.096 2.293 -0.07 2.399 c -0.046 0.029 -0.085 0.046 -0.126 0.068 c 0.039 0.109 0.083 0.221 0.118 0.329 c 0.047 0.234 0.1 0.462 0.131 0.685 c 0.005 0.236 0.027 0.458 0.008 0.678 c -0.046 0.443 -0.15 0.851 -0.326 1.185 c -0.155 0.342 -0.38 0.599 -0.578 0.805 c -0.198 0.21 -0.406 0.348 -0.574 0.455 c -0.169 0.104 -0.316 0.163 -0.412 0.202 c -0.101 0.036 -0.154 0.048 -0.154 0.048 c 0 0 0.03 -0.045 0.086 -0.132 c 0.056 -0.084 0.125 -0.218 0.211 -0.375 c 0.082 -0.163 0.165 -0.364 0.243 -0.585 c 0.032 -0.115 0.075 -0.229 0.09 -0.357 C -1.326 5.28 -1.301 5.154 -1.298 5.02 C -1.267 4.759 -1.299 4.481 -1.346 4.204 C -1.376 4.064 -1.427 3.923 -1.461 3.782 C -1.525 3.642 -1.582 3.497 -1.64 3.353 C -1.725 3.211 -1.802 3.065 -1.878 2.919 C -1.968 2.781 -2.066 2.652 -2.15 2.515 C -2.346 2.235 -2.66 1.861 -2.882 1.559 C -3.02 1.366 -3.165 1.183 -3.291 0.981 C -3.412 0.772 -3.521 0.558 -3.632 0.349 c -0.193 -0.443 -0.344 -0.903 -0.407 -1.372 c -0.068 -0.466 -0.049 -0.929 0.025 -1.352 c 0.042 -0.209 0.105 -0.408 0.161 -0.597 c 0.079 -0.183 0.152 -0.358 0.234 -0.518 c 0.177 -0.315 0.373 -0.572 0.564 -0.78 c 0.164 -0.183 0.327 -0.316 0.473 -0.427 c -0.047 -0.176 -0.087 -0.352 -0.111 -0.53 c -0.068 -0.466 -0.048 -0.93 0.025 -1.351 c 0.043 -0.21 0.105 -0.409 0.161 -0.598 c 0.079 -0.183 0.152 -0.357 0.234 -0.517 c 0.175 -0.315 0.374 -0.573 0.565 -0.78 c 0.187 -0.209 0.379 -0.361 0.536 -0.48 c 0.32 -0.233 0.534 -0.307 0.534 -0.307 c 0 0 -0.106 0.199 -0.246 0.539 c -0.07 0.168 -0.137 0.379 -0.212 0.61 c -0.069 0.232 -0.118 0.496 -0.16 0.771 c -0.01 0.137 -0.02 0.279 -0.031 0.426 c 0.011 0.146 0.001 0.292 0.016 0.44 c 0.032 0.298 0.093 0.598 0.193 0.899 c 0.068 0.148 0.098 0.304 0.178 0.452 c 0.083 0.148 0.147 0.3 0.23 0.451 c 0.095 0.149 0.194 0.293 0.281 0.446 c 0.099 0.15 0.222 0.29 0.329 0.437 c 0.266 0.379 0.499 0.645 0.744 1.064 c 0.123 0.217 0.247 0.434 0.345 0.654 c 0.084 0.224 0.168 0.444 0.239 0.663 c 0.046 0.234 0.1 0.461 0.13 0.685 c 0.005 0.235 0.028 0.459 0.007 0.679" stroke-linecap="round" />
</g>
		<g transform="matrix(2.0301987584346435 0 0 -2.0301987584346435 0 7.318745684846391)"  >
<path style="stroke: none; stroke-width: 1; stroke-dasharray: none; stroke-linecap: butt; stroke-dashoffset: 0; stroke-linejoin: miter; stroke-miterlimit: 4; fill: rgb(97,79,54); fill-rule: nonzero; opacity: 1;"  paint-order="stroke"  transform=" translate(0.6135000000000019, 41.124)" d="m 0 0 v -2.079 c 0 -0.266 -0.116 -0.502 -0.296 -0.672 v 0.452 c 0 0.349 -0.283 0.632 -0.632 0.632 c -0.348 0 -0.632 -0.283 -0.632 -0.632 v -0.452 c -0.18 0.17 -0.295 0.406 -0.295 0.672 V 0 c 0 0.267 0.115 0.503 0.295 0.672 V 0.22 c 0 -0.35 0.284 -0.632 0.632 -0.632 c 0.349 0 0.632 0.282 0.632 0.632 V 0.672 C -0.116 0.503 0 0.267 0 0 m 0 -6.676 v -2.079 c 0 -0.266 -0.116 -0.502 -0.296 -0.672 v 0.452 c 0 0.349 -0.283 0.632 -0.632 0.632 c -0.348 0 -0.632 -0.283 -0.632 -0.632 v -0.452 c -0.18 0.17 -0.295 0.406 -0.295 0.672 v 2.079 c 0 0.266 0.115 0.502 0.295 0.671 v -0.452 c 0 -0.349 0.284 -0.632 0.632 -0.632 c 0.349 0 0.632 0.283 0.632 0.632 v 0.452 C -0.116 -6.174 0 -6.41 0 -6.676 m 0 -6.677 v -2.079 c 0 -0.265 -0.116 -0.502 -0.296 -0.672 v 0.453 c 0 0.348 -0.283 0.631 -0.632 0.631 c -0.348 0 -0.632 -0.283 -0.632 -0.631 v -0.453 c -0.18 0.17 -0.295 0.407 -0.295 0.672 v 2.079 c 0 0.267 0.115 0.503 0.295 0.672 v -0.452 c 0 -0.349 0.284 -0.632 0.632 -0.632 c 0.349 0 0.632 0.283 0.632 0.632 v 0.452 C -0.116 -12.85 0 -13.086 0 -13.353 m 0 -6.676 v -2.079 c 0 -0.266 -0.116 -0.502 -0.296 -0.671 v 0.451 c 0 0.349 -0.283 0.633 -0.632 0.633 c -0.348 0 -0.632 -0.284 -0.632 -0.633 v -0.451 c -0.18 0.169 -0.295 0.405 -0.295 0.671 v 2.079 c 0 0.266 0.115 0.503 0.295 0.672 v -0.453 c 0 -0.348 0.284 -0.631 0.632 -0.631 c 0.349 0 0.632 0.283 0.632 0.631 v 0.453 C -0.116 -19.526 0 -19.763 0 -20.029 M 0.337 9.813 V 21.544 H -2.191 V 9.812 l -51.654 -113.604 h 2.778 L -1.56 5.095 V 2.088 C -2.458 1.814 -3.119 0.987 -3.119 0 v -2.079 c 0 -0.986 0.661 -1.814 1.559 -2.087 v -0.423 c -0.898 -0.273 -1.559 -1.099 -1.559 -2.087 v -2.079 c 0 -0.987 0.661 -1.814 1.559 -2.087 v -0.423 c -0.898 -0.273 -1.559 -1.1 -1.559 -2.088 v -2.079 c 0 -0.986 0.661 -1.813 1.559 -2.087 v -0.422 c -0.898 -0.274 -1.559 -1.101 -1.559 -2.088 v -2.079 c 0 -0.987 0.661 -1.814 1.559 -2.087 v -2.291 c 0 -0.349 0.284 -0.632 0.632 -0.632 c 0.349 0 0.632 0.283 0.632 0.632 v 2.291 c 0.9 0.273 1.56 1.1 1.56 2.087 v 2.079 c 0 0.987 -0.66 1.814 -1.56 2.088 v 0.422 c 0.9 0.274 1.56 1.101 1.56 2.087 v 2.079 c 0 0.988 -0.66 1.815 -1.56 2.088 v 0.423 c 0.9 0.273 1.56 1.1 1.56 2.087 v 2.079 c 0 0.988 -0.66 1.814 -1.56 2.087 v 0.423 c 0.9 0.273 1.56 1.101 1.56 2.087 V 0 c 0 0.987 -0.66 1.814 -1.56 2.088 v 3.054 l 50.135 -108.934 h 2.768 l 0.011 0.004 z" stroke-linecap="round" />
</g>
		<g transform="matrix(2.232610813123318 0 0 -2.232610813123318 -1.5343036058043253 26.94392311702086)"  >
<path style="stroke: none; stroke-width: 1; stroke-dasharray: none; stroke-linecap: butt; stroke-dashoffset: 0; stroke-linejoin: miter; stroke-miterlimit: 4; fill: rgb(97,79,54); fill-rule: nonzero; opacity: 1;"  paint-order="stroke"  transform=" translate(-15.833, 3.939)" d="m 0 0 c 0.081 2.748 0.731 10.317 5.297 15.062 c 2.622 2.725 6.167 4.108 10.536 4.108 c 4.364 0 7.907 -1.381 10.529 -4.102 C 30.923 10.335 31.58 2.752 31.663 0 h -15.83 z m 34.401 -4.654 h 1.843 v 3.582 H 33.63 c 0.025 0.699 0.271 11.132 -5.85 17.493 c -3.007 3.124 -7.025 4.707 -11.947 4.707 c -4.923 0 -8.942 -1.583 -11.948 -4.707 C -2.236 10.06 -1.99 -0.373 -1.965 -1.072 h -2.614 v -3.582 h 1.844 l -4.35 -14.682 c 0 0 3.222 -9.67 22.918 -9.67 c 19.695 0 22.918 9.67 22.918 9.67 z" stroke-linecap="round" />
</g>
		<g transform="matrix(2.232610813123318 0 0 -2.232610813123318 27.645249938473455 51.32693559038455)"  >
<path style="stroke: none; stroke-width: 1; stroke-dasharray: none; stroke-linecap: butt; stroke-dashoffset: 0; stroke-linejoin: miter; stroke-miterlimit: 4; fill: rgb(146,124,93); fill-rule: nonzero; opacity: 1;"  paint-order="stroke"  transform=" translate(2.1480000000000006, 11.997)" d="m 0 0 l 5.193 -16.832 c 0 0 -3.061 -5.342 -14.682 -7.162 c 0 0 10.365 4.617 12.075 7.342 z" stroke-linecap="round" />
</g>
		<g transform="matrix(3.1592000771113633 0 0 -3.1592000771113637 0.7015384654778245 97.05011231761989)"  >
<path style="stroke: none; stroke-width: 1; stroke-dasharray: none; stroke-linecap: butt; stroke-dashoffset: 0; stroke-linejoin: miter; stroke-miterlimit: 4; fill: rgb(246,135,18); fill-rule: nonzero; opacity: 1;"  paint-order="stroke"  transform=" translate(8.369000000000002, -0.5745000000000005)" d="m 0 0 c -0.081 0.246 -0.172 0.488 -0.271 0.727 c -0.354 0.846 -0.807 1.649 -1.272 2.428 c -2.705 4.532 -6.825 9.11 -6.825 9.11 c 0.296 -9.022 -3.263 -8.981 -3.263 -8.981 c -2.371 0 -1.863 2.881 -1.863 2.881 c -1.356 -1.693 -2.777 -4.711 -2.777 -4.711 c -0.102 -0.211 -0.186 -0.431 -0.271 -0.65 c -0.095 -0.248 -0.177 -0.501 -0.25 -0.759 c -0.216 -0.763 -0.345 -1.562 -0.345 -2.394 c 0 -1.006 0.179 -1.97 0.491 -2.871 c 0.065 -0.187 0.128 -0.376 0.206 -0.558 c 0.541 -1.272 1.377 -2.387 2.418 -3.267 c 0.117 -0.1 0.241 -0.191 0.363 -0.285 c 1.472 -1.116 3.301 -1.786 5.291 -1.786 c 0.423 0 0.836 0.04 1.243 0.098 c 0.13 0.019 0.261 0.036 0.389 0.059 c 1.356 0.256 2.598 0.826 3.657 1.63 c 0.123 0.093 0.247 0.184 0.364 0.284 c 1.041 0.88 1.876 1.995 2.418 3.267 c 0.077 0.182 0.141 0.371 0.206 0.558 c 0.312 0.901 0.49 1.865 0.49 2.871 C 0.399 -1.519 0.244 -0.741 0 0" stroke-linecap="round" />
</g>
		<g transform="matrix(3.1592000771113633 0 0 -3.1592000771113637 14.738376243426558 97.05011231761989)"  >
<path style="stroke: none; stroke-width: 1; stroke-dasharray: none; stroke-linecap: butt; stroke-dashoffset: 0; stroke-linejoin: miter; stroke-miterlimit: 4; fill: rgb(249,165,13); fill-rule: nonzero; opacity: 1;"  paint-order="stroke"  transform=" translate(-3.4574999578931553, 9.677)" d="m 0 0 c 0 0 13.508 -12.877 2.765 -19.354 c 0 0 6.714 5.213 -2.765 19.354" stroke-linecap="round" />
</g>
</g>
</g>
</svg>