<svg id="Layer_1" enable-background="new 0 0 512 512" height="512" viewBox="0 0 512 512" width="512" xmlns="http://www.w3.org/2000/svg"><g><path d="m336.014 423.245 58.324-21.872c4.821-1.808 6.704-7.644 3.848-11.928l-13.802-20.702 22.017-29.354c3.527-4.703.935-11.491-4.831-12.645l-37.801-7.56-7.002-21.007c-1.788-5.357-8.398-7.209-12.711-3.616l-32.806 27.337 11.854-53.338c1.283-5.773-3.956-10.944-9.75-9.497l-27.272 6.818c-24.748-57.746-22.867-53.826-24.158-55.25-2.445-2.697-6.598-3.546-10.041-1.48-3.183 1.908-1.578-.169-25.963 56.729l-27.272-6.818c-5.759-1.439-11.04 3.693-9.75 9.497l11.854 53.338-32.806-27.337c-4.318-3.6-10.927-1.73-12.711 3.616l-7.002 21.007-37.801 7.56c-5.764 1.153-8.359 7.94-4.831 12.645l22.017 29.354-13.802 20.702c-2.857 4.284-.973 10.12 3.848 11.928l58.324 21.872-11.349 17.024c-2.979 4.467-.789 10.557 4.357 12.1l79.004 23.702v27.93c0 4.418 3.582 8 8 8s8-3.582 8-8v-27.93l79.005-23.701c5.143-1.543 7.338-7.631 4.357-12.1zm-72.014 36.12v-36.072l64.564-48.423c3.535-2.651 4.251-7.665 1.601-11.2-2.653-3.536-7.669-4.25-11.2-1.6l-54.965 41.224v-85.647c0-4.418-3.582-8-8-8s-8 3.582-8 8v85.647l-54.965-41.223c-3.534-2.65-8.548-1.936-11.2 1.6-2.65 3.535-1.935 8.549 1.601 11.2l64.564 48.423v36.072l-64.054-19.216 10.945-16.418c2.857-4.284.973-10.12-3.848-11.928l-58.324-21.872 11.349-17.023c1.882-2.822 1.779-6.524-.256-9.238l-17.796-23.727 29.905-5.981c2.814-.563 5.112-2.591 6.021-5.315l4.764-14.292 41.82 34.849c5.847 4.871 14.582-.449 12.931-7.881l-14.134-63.599 21.324 5.331c3.809.952 7.746-1 9.294-4.61l18.059-42.137 18.059 42.136c1.547 3.609 5.484 5.562 9.294 4.61l21.324-5.331-14.134 63.599c-1.65 7.427 7.082 12.755 12.931 7.881l41.82-34.849 4.764 14.292c.908 2.724 3.206 4.752 6.021 5.315l29.905 5.981-17.796 23.727c-2.035 2.714-2.138 6.416-.256 9.238l11.349 17.023-58.324 21.872c-4.821 1.808-6.704 7.644-3.848 11.928l10.945 16.418z"/><path d="m464 32h-40v-8c0-13.234-10.767-24-24-24s-24 10.766-24 24v8h-240v-8c0-13.234-10.767-24-24-24s-24 10.766-24 24v8h-40c-17.645 0-32 14.355-32 32v336c0 17.645 14.355 32 32 32h80c4.418 0 8-3.582 8-8s-3.582-8-8-8h-80c-8.822 0-16-7.178-16-16v-272h448v272c0 8.822-7.178 16-16 16h-80c-4.418 0-8 3.582-8 8s3.582 8 8 8h80c17.645 0 32-14.355 32-32 0-14.641 0-319.924 0-336 0-17.645-14.355-32-32-32zm-72-8c0-4.411 3.589-8 8-8s8 3.589 8 8v40c0 4.411-3.589 8-8 8s-8-3.589-8-8zm-288 0c0-4.411 3.589-8 8-8s8 3.589 8 8v40c0 4.411-3.589 8-8 8s-8-3.589-8-8zm-72 88v-48c0-8.822 7.178-16 16-16h40v16c0 13.234 10.767 24 24 24s24-10.766 24-24v-16h240v16c0 13.234 10.767 24 24 24s24-10.766 24-24v-16h40c8.822 0 16 7.178 16 16v48z"/></g></svg>