<?xml version="1.0" encoding="iso-8859-1"?>
<!-- Generator: Adobe Illustrator 17.1.0, SVG Export Plug-In . SVG Version: 6.00 Build 0)  -->
<!DOCTYPE svg PUBLIC "-//W3C//DTD SVG 1.1//EN" "http://www.w3.org/Graphics/SVG/1.1/DTD/svg11.dtd">
<svg version="1.1" id="Capa_1" xmlns="http://www.w3.org/2000/svg" xmlns:xlink="http://www.w3.org/1999/xlink" x="0px" y="0px"
	 viewBox="0 0 475.801 475.801" style="enable-background:new 0 0 475.801 475.801;" xml:space="preserve">
<path d="M285.966,30.948C273.4,10.991,256.33,0,237.9,0s-35.5,10.991-48.066,30.948C177.947,49.827,171.4,74.776,171.4,101.2
	c0,42.886,17.032,80.069,42.851,94.722l-8.562,246.535c-0.305,8.814,2.902,17.163,9.031,23.507c6.128,6.344,14.36,9.837,23.18,9.837
	c8.82,0,17.053-3.494,23.181-9.838c6.128-6.344,9.335-14.691,9.03-23.508l-8.561-246.516c9.828-5.596,18.669-14.695,25.818-26.784
	c10.983-18.571,17.032-42.704,17.032-67.955C304.4,74.776,297.854,49.827,285.966,30.948z M274.458,161.52
	c-6.416,10.848-14.263,18.579-22.749,22.628c-0.627,0.19-1.219,0.457-1.763,0.793c-2.895,1.194-5.856,1.974-8.856,2.291
	c-4.119,0.435-7.105,4.127-6.67,8.246c0.407,3.852,3.661,6.713,7.449,6.713c0.264,0,0.53-0.015,0.798-0.043
	c1.366-0.145,2.722-0.357,4.068-0.624l8.385,241.451c0.163,4.712-1.551,9.175-4.827,12.566c-3.276,3.391-7.677,5.259-12.393,5.259
	c-4.715,0-9.116-1.867-12.392-5.259c-3.276-3.392-4.991-7.854-4.828-12.565l8.731-251.398c0.12-3.472-2.142-6.466-5.316-7.429
	C201.859,173.537,186.4,139.647,186.4,101.2c0-23.633,5.728-45.743,16.127-62.26C212.249,23.502,224.811,15,237.9,15
	s25.652,8.502,35.373,23.94c10.4,16.517,16.127,38.627,16.127,62.26C289.4,123.805,284.094,145.227,274.458,161.52z M282.4,104.199
	c0,4.143-3.358,7.5-7.5,7.5s-7.5-3.357-7.5-7.5c0-1.977-0.05-3.974-0.148-5.934c-0.207-4.137,2.979-7.658,7.116-7.865
	c4.128-0.235,7.659,2.979,7.866,7.115C282.344,99.725,282.4,101.974,282.4,104.199z M270.486,79.425
	c-3.249,0-6.242-2.127-7.197-5.403c-5.835-20.019-16.978-32.953-28.389-32.953c-4.142,0-7.5-3.357-7.5-7.5s3.358-7.5,7.5-7.5
	c18.527,0,34.922,16.767,42.789,43.756c1.159,3.977-1.125,8.14-5.102,9.299C271.888,79.327,271.181,79.425,270.486,79.425z"/>
<g>
</g>
<g>
</g>
<g>
</g>
<g>
</g>
<g>
</g>
<g>
</g>
<g>
</g>
<g>
</g>
<g>
</g>
<g>
</g>
<g>
</g>
<g>
</g>
<g>
</g>
<g>
</g>
<g>
</g>
</svg>
