<svg id="Layer_1" enable-background="new 0 0 512 512" height="512" viewBox="0 0 512 512" width="512" xmlns="http://www.w3.org/2000/svg"><g><path d="m464 32h-40v-8c0-13.234-10.767-24-24-24s-24 10.766-24 24v8h-240v-8c0-13.234-10.767-24-24-24s-24 10.766-24 24v8h-40c-17.645 0-32 14.355-32 32v336c0 17.645 14.355 32 32 32h72c4.418 0 8-3.582 8-8s-3.582-8-8-8h-72c-8.822 0-16-7.178-16-16v-272h448v272c0 8.822-7.178 16-16 16h-72c-4.418 0-8 3.582-8 8s3.582 8 8 8h72c17.645 0 32-14.355 32-32 0-14.641 0-319.924 0-336 0-17.645-14.355-32-32-32zm-72-8c0-4.411 3.589-8 8-8s8 3.589 8 8v40c0 4.411-3.589 8-8 8s-8-3.589-8-8zm-288 0c0-4.411 3.589-8 8-8s8 3.589 8 8v40c0 4.411-3.589 8-8 8s-8-3.589-8-8zm-72 88v-48c0-8.822 7.178-16 16-16h40v16c0 13.234 10.767 24 24 24s24-10.766 24-24v-16h240v16c0 13.234 10.767 24 24 24s24-10.766 24-24v-16h40c8.822 0 16 7.178 16 16v48z"/><path d="m348.237 398.205c6.932 1.17 13.096 1.795 17.664 1.795 24.001 0 42.1-17.196 42.1-40s-18.099-40-42.1-40c-4.567 0-10.731.625-17.664 1.795 5.732-4.076 10.534-7.992 13.76-11.218 8.394-8.394 13.095-18.943 13.237-29.705.446-33.524-41.149-55.53-69.812-26.869-3.226 3.226-7.143 8.027-11.218 13.76 1.17-6.932 1.795-13.096 1.795-17.663 0-24.001-17.196-42.1-40-42.1s-40 18.099-40 42.1c0 4.567.625 10.731 1.795 17.663-4.075-5.732-7.991-10.533-11.218-13.76-28.616-28.614-70.258-6.679-69.812 26.869.143 10.762 4.844 21.311 13.237 29.705 3.227 3.226 8.028 7.143 13.76 11.218-6.932-1.17-13.096-1.795-17.664-1.795-24.001 0-42.1 17.196-42.1 40s18.099 40 42.1 40c4.567 0 10.731-.625 17.664-1.795-5.732 4.076-10.534 7.992-13.76 11.218-8.394 8.394-13.095 18.943-13.237 29.705-.45 33.826 41.329 55.349 69.812 26.869 3.226-3.226 7.143-8.027 11.218-13.76-1.17 6.932-1.795 13.096-1.795 17.663 0 24.001 17.196 42.1 40 42.1s40-18.099 40-42.1c0-4.567-.625-10.731-1.795-17.663 4.075 5.732 7.991 10.533 11.218 13.76 28.697 28.695 70.257 6.588 69.812-26.869-.143-10.762-4.844-21.311-13.237-29.705-3.226-3.226-8.028-7.142-13.76-11.218zm-92.237 13.089c-28.283 0-51.294-23.01-51.294-51.294s23.011-51.294 51.294-51.294 51.294 23.01 51.294 51.294-23.011 51.294-51.294 51.294zm109.9-27.294c-9.516 0-28.346-3.534-44.308-9.022 2.25-9.857 2.286-19.94 0-29.956 15.962-5.488 34.793-9.022 44.308-9.022 34.813 0 34.898 48 0 48zm-49.163-118.683c24.622-24.622 58.576 9.315 33.945 33.946-6.72 6.72-22.543 17.541-37.729 24.958-5.385-8.542-12.633-15.79-21.175-21.175 7.417-15.185 18.239-31.008 24.959-37.729zm-36.737-15.217c0 9.515-3.533 28.345-9.022 44.307-9.857-2.25-19.941-2.286-29.956 0-5.489-15.962-9.022-34.792-9.022-44.307 0-34.835 48-34.868 48 0zm-84.737 15.217c6.721 6.72 17.542 22.545 24.958 37.73-8.542 5.385-15.79 12.633-21.175 21.175-15.186-7.417-31.009-18.238-37.729-24.958-24.665-24.666 9.327-58.566 33.946-33.947zm-49.163 70.683c9.516 0 28.346 3.534 44.308 9.022-2.25 9.857-2.286 19.94 0 29.956-15.962 5.488-34.793 9.022-44.308 9.022-34.813 0-34.898-48 0-48zm49.163 118.683c-24.621 24.621-58.576-9.315-33.945-33.946 6.72-6.72 22.543-17.541 37.729-24.958 5.385 8.542 12.633 15.79 21.175 21.175-7.417 15.185-18.239 31.009-24.959 37.729zm36.737 15.217c0-9.515 3.533-28.345 9.022-44.307 9.857 2.25 19.941 2.286 29.956 0 5.489 15.962 9.022 34.792 9.022 44.307 0 34.835-48 34.868-48 0zm84.737-15.217c-6.721-6.72-17.542-22.545-24.958-37.73 8.542-5.385 15.79-12.633 21.175-21.175 15.186 7.417 31.009 18.238 37.729 24.958 24.63 24.631-9.322 58.571-33.946 33.947z"/></g></svg>