<svg id="Layer_1" enable-background="new 0 0 511.999 511.999" height="512" viewBox="0 0 511.999 511.999" width="512" xmlns="http://www.w3.org/2000/svg"><g><path d="m255.999 272c-48.523 0-88 39.477-88 88s39.477 88 88 88 88-39.477 88-88-39.476-88-88-88zm0 160c-39.701 0-72-32.299-72-72s32.299-72 72-72 72 32.299 72 72-32.299 72-72 72z"/><path d="m400.886 352.049c-28.974-3.244-38.914-40.363-15.443-57.654 3.281-2.417 4.221-6.915 2.182-10.443s-6.404-4.961-10.137-3.325c-26.665 11.68-53.794-15.457-42.115-42.115 1.635-3.733.203-8.099-3.325-10.137-3.529-2.039-8.026-1.099-10.443 2.182-17.292 23.472-54.411 13.528-57.654-15.444-.441-4.009-3.843-7.111-7.951-7.111-4.109 0-7.51 3.108-7.951 7.111-3.244 28.975-40.364 38.914-57.654 15.443-2.417-3.282-6.914-4.222-10.443-2.182-3.528 2.039-4.96 6.404-3.325 10.137 11.682 26.661-15.456 53.796-42.115 42.115-3.736-1.636-8.099-.204-10.137 3.325-2.039 3.529-1.099 8.026 2.182 10.443 23.473 17.292 13.529 54.411-15.444 57.654-4.009.441-7.111 3.843-7.111 7.951 0 4.109 3.108 7.51 7.111 7.951 28.974 3.244 38.914 40.363 15.443 57.654-3.281 2.417-4.221 6.915-2.182 10.443s6.404 4.96 10.137 3.325c26.662-11.681 53.794 15.457 42.115 42.115-1.635 3.733-.203 8.099 3.325 10.137 3.531 2.041 8.026 1.099 10.443-2.182 17.292-23.472 54.411-13.528 57.654 15.444.441 4.009 3.843 7.111 7.951 7.111 4.109 0 7.51-3.108 7.951-7.111 3.244-28.974 40.363-38.914 57.654-15.443 2.417 3.282 6.915 4.222 10.443 2.182 3.528-2.039 4.96-6.404 3.325-10.137-11.682-26.662 15.457-53.796 42.115-42.115 3.733 1.635 8.099.203 10.137-3.325 2.039-3.529 1.099-8.026-2.182-10.443-23.473-17.292-13.529-54.411 15.444-57.654 9.305-1.024 9.57-14.849 0-15.902zm-39.921 68.601c-23.229 1.676-42.639 21.074-44.316 44.315-20.99-10.188-47.554-3.084-60.65 16.254-13.082-19.318-39.64-26.451-60.65-16.254-1.673-23.223-21.072-42.641-44.316-44.316 10.188-20.992 3.084-47.554-16.253-60.65 19.321-13.084 26.451-39.638 16.254-60.65 23.229-1.676 42.639-21.074 44.316-44.315 20.991 10.189 47.554 3.084 60.65-16.254 13.082 19.319 39.64 26.453 60.65 16.254 1.673 23.223 21.072 42.641 44.316 44.316-10.188 20.992-3.084 47.554 16.253 60.65-19.321 13.084-26.451 39.638-16.254 60.65z"/><path d="m463.999 32h-40v-8c0-13.234-10.766-24-24-24s-24 10.766-24 24v8h-240v-8c0-13.234-10.766-24-24-24s-24 10.766-24 24v8h-40c-17.645 0-32 14.355-32 32v336c0 17.645 14.355 32 32 32h40c4.418 0 8-3.582 8-8s-3.582-8-8-8h-40c-8.822 0-16-7.178-16-16v-272h448v272c0 8.822-7.178 16-16 16h-40c-4.418 0-8 3.582-8 8s3.582 8 8 8h40c17.645 0 32-14.355 32-32 0-14.641 0-319.924 0-336 0-17.645-14.355-32-32-32zm-72-8c0-4.411 3.589-8 8-8s8 3.589 8 8v40c0 4.411-3.589 8-8 8s-8-3.589-8-8zm-288 0c0-4.411 3.589-8 8-8s8 3.589 8 8v40c0 4.411-3.589 8-8 8s-8-3.589-8-8zm-72 88v-48c0-8.822 7.178-16 16-16h40v16c0 13.234 10.766 24 24 24s24-10.766 24-24v-16h240v16c0 13.234 10.766 24 24 24s24-10.766 24-24v-16h40c8.822 0 16 7.178 16 16v48z"/></g></svg>