<?xml version="1.0" encoding="iso-8859-1"?>
<!-- Generator: Adobe Illustrator 19.0.0, SVG Export Plug-In . SVG Version: 6.00 Build 0)  -->
<svg xmlns="http://www.w3.org/2000/svg" xmlns:xlink="http://www.w3.org/1999/xlink" version="1.1" id="Layer_1" x="0px" y="0px" viewBox="0 0 504.974 504.974" style="enable-background:new 0 0 504.974 504.974;" xml:space="preserve" width="512" height="512">
<g>
	<path d="M490.299,460.753c-2.869-18.255-8.744-42.124-16.542-67.211c-1.229-3.955-5.434-6.165-9.389-4.936   c-3.955,1.229-6.165,5.433-4.936,9.388c16.036,51.588,19.735,84.193,17.314,91.311c-1.961,0.554-9.519,1.829-31.258-2.024   c-18.522-3.282-42.21-9.424-66.697-17.294c-1.381-0.444-2.76-0.896-4.138-1.348l26.14-26.14c2.929-2.929,2.929-7.678,0-10.606   c-2.93-2.929-7.678-2.929-10.607,0l-31.363,31.363c-52.028-18.327-100.781-41.817-136.069-65.749   c-60.219-40.84-70.143-74.288-67.865-95.155c1.657-15.173,6.626-30.943,14.77-46.873c15.967-31.23,41.959-57.223,73.189-73.189   c15.93-8.144,31.7-13.113,46.873-14.77c21.663-2.364,42.311,9.461,59.986,25.788l-26.383,26.383c-2.929,2.929-2.929,7.678,0,10.606   c1.465,1.464,3.385,2.197,5.304,2.197s3.839-0.732,5.304-2.197l26.355-26.355c7.286,7.92,13.908,16.333,19.677,24.392   c17.322,24.201,34.416,55.292,49.819,90.318l-28.941,28.941c-2.929,2.929-2.929,7.678,0,10.606   c1.465,1.465,3.384,2.197,5.304,2.197c1.919,0,3.839-0.732,5.304-2.197l24.675-24.675c4.816,11.656,9.435,23.678,13.806,35.97   c1.387,3.903,5.68,5.941,9.579,4.554c3.903-1.388,5.941-5.676,4.554-9.579c-20.238-56.915-45.773-108.362-71.902-144.866   c-34.52-48.225-69.527-70.768-104.069-66.994c-3.01,0.329-6.038,0.777-9.079,1.333c-10.421-13.935-14.86-35.782-19.534-58.819   c-6.065-29.894-12.336-60.806-32.698-81.167c-16.5-16.5-40.468-18.518-62.551-5.265c-22.291,13.379-40.353,41.526-36.407,72.376   c-18.588-5.048-36.41-7.3-52.071-6.385c-4.135,0.242-7.291,3.791-7.049,7.925c0.242,4.135,3.788,7.284,7.925,7.049   c53.844-3.143,134.101,36.971,160.57,78.69c-0.393,0.197-0.786,0.387-1.178,0.588c-34.015,17.39-62.326,45.7-79.716,79.716   c-0.748,1.464-1.463,2.927-2.163,4.39c-11.143-1.178-24.426-0.934-38.375-0.673c-28.817,0.542-61.477,1.155-74.557-11.682   c-4.146-4.069-6.161-9.492-6.161-16.579c0-12.969,13.827-29.471,35.488-42.61c13.559,4.924,27.984,9.103,40.839,12.815   c15.844,4.575,30.81,8.897,37.947,12.961c1.171,0.667,2.446,0.984,3.705,0.984c2.607,0,5.142-1.362,6.524-3.79   c2.05-3.599,0.794-8.179-2.806-10.229c-8.686-4.947-23.757-9.299-41.208-14.338c-13.666-3.946-29.154-8.419-43.116-13.686   c-44.677-16.842-46.604-31.978-44.167-41.897c3.149-12.813,10.322-22.216,21.317-27.945c3.673-1.914,5.1-6.444,3.186-10.117   c-1.915-3.674-6.444-5.1-10.117-3.186c-14.987,7.809-24.728,20.482-28.952,37.668c-6.94,28.245,20.376,45.209,39.926,54.019   c-14.386,10.344-33.565,28.115-33.565,49.349c0,11.167,3.585,20.347,10.655,27.285c17.574,17.247,52.027,16.599,85.345,15.974   c11.535-0.217,22.593-0.421,31.935,0.199c-4.13,11.183-6.816,22.279-8.003,33.159c-2.951,27.026,10.386,54.576,39.64,81.886   c23.737,22.159,57.295,43.714,99.744,64.066c40.456,19.397,87.85,36.852,130.029,47.888c30.54,7.991,48.89,10.41,60.086,10.41   c13.095,0,16.406-3.31,17.981-4.884C494.328,493.219,492.749,476.349,490.299,460.753z M179.289,101.465   c-11.661-6.092-23.511-11.228-35.224-15.336c-7.209-27.086,8.334-52.842,27.884-64.575c23.245-13.951,38.672-2.543,44.225,3.01   c17.166,17.167,22.981,45.827,28.604,73.543c4.518,22.266,8.834,43.507,18.706,59.629c-4.152,1.263-8.321,2.73-12.5,4.397   C237.903,140.482,212.231,118.675,179.289,101.465z"/>
	<path d="M247.65,372.441c1.919,0,3.839-0.732,5.304-2.197l49.419-49.419c2.929-2.929,2.929-7.678,0-10.606   c-2.93-2.929-7.678-2.929-10.607,0l-49.418,49.419c-2.929,2.929-2.929,7.678,0,10.606   C243.811,371.708,245.73,372.441,247.65,372.441z"/>
	<path d="M252.798,217.49c-2.93-2.929-7.678-2.929-10.607,0l-49.419,49.419c-2.929,2.929-2.929,7.678,0,10.606   c1.464,1.464,3.384,2.197,5.303,2.197s3.839-0.732,5.303-2.197l49.419-49.419C255.727,225.167,255.727,220.418,252.798,217.49z"/>
</g>















</svg>
