<svg id="Layer_1" enable-background="new 0 0 512 512" height="512" viewBox="0 0 512 512" width="512" xmlns="http://www.w3.org/2000/svg"><g><path d="m387.636 284c-2.208-3.826-7.102-5.135-10.928-2.928l-41.961 24.228 7.404-27.631c1.144-4.268-1.39-8.655-5.657-9.798-4.265-1.141-8.653 1.389-9.798 5.657l-11.546 43.087-29.231 16.878c-5.645-6.364-13.277-10.926-21.92-12.687v-33.726l31.54-31.54c3.124-3.124 3.124-8.189 0-11.313s-8.188-3.125-11.314 0l-20.225 20.224v-48.451c0-4.418-3.582-8-8-8s-8 3.582-8 8v48.451l-20.226-20.226c-3.124-3.124-8.189-3.124-11.313 0-3.125 3.124-3.125 8.189 0 11.313l31.539 31.54v33.727c-8.643 1.761-16.275 6.323-21.92 12.687l-29.231-16.878-11.545-43.087c-1.144-4.267-5.525-6.797-9.798-5.657-4.268 1.144-6.8 5.53-5.657 9.798l7.404 27.631-41.96-24.228c-3.824-2.208-8.718-.898-10.929 2.928-2.209 3.826-.898 8.719 2.928 10.929l41.958 24.226-27.626 7.402c-4.268 1.144-6.801 5.53-5.657 9.798 1.145 4.273 5.533 6.797 9.798 5.657l43.08-11.543 29.22 16.872c-2.752 8.224-2.757 17.08 0 25.32l-29.22 16.872-43.08-11.543c-4.27-1.14-8.654 1.39-9.798 5.657-1.144 4.268 1.389 8.655 5.657 9.798l27.626 7.402-41.958 24.226c-7.054 4.073-4.168 14.93 4.008 14.93 2.979 0 .51.938 45.954-25.301l-7.404 27.631c-1.144 4.268 1.389 8.655 5.657 9.798 4.266 1.141 8.653-1.385 9.798-5.657l11.545-43.087 29.231-16.878c5.645 6.364 13.277 10.926 21.92 12.687v33.727l-31.539 31.539c-3.125 3.124-3.125 8.189 0 11.313 3.125 3.125 8.189 3.124 11.313 0l20.225-20.225v48.451c0 4.418 3.582 8 8 8s8-3.582 8-8v-48.451l20.226 20.226c3.125 3.124 8.189 3.124 11.314 0 3.124-3.124 3.124-8.189 0-11.313l-31.54-31.541v-33.726c8.643-1.761 16.275-6.323 21.92-12.687l29.231 16.878 11.546 43.087c.958 3.574 4.19 5.931 7.723 5.931 5.259 0 9.093-4.994 7.732-10.073l-7.404-27.631 41.961 24.228c3.812 2.201 8.711.912 10.928-2.928 2.21-3.826.898-8.719-2.928-10.929l-41.958-24.226 27.626-7.402c4.268-1.144 6.801-5.53 5.657-9.798s-5.532-6.797-9.798-5.657l-43.08 11.543-29.22-16.872c2.752-8.224 2.757-17.08 0-25.32l29.22-16.872c47.093 12.618 43.654 11.818 45.156 11.818 3.532 0 6.765-2.357 7.723-5.931 1.144-4.268-1.39-8.655-5.657-9.798l-27.626-7.402 41.958-24.226c3.824-2.209 5.136-7.102 2.926-10.928zm-131.636 100c-13.233 0-24-10.767-24-24s10.767-24 24-24 24 10.767 24 24-10.767 24-24 24z"/><path d="m464 32h-40v-8c0-13.234-10.767-24-24-24s-24 10.766-24 24v8h-240v-8c0-13.234-10.766-24-24-24s-24 10.766-24 24v8h-40c-17.645 0-32 14.355-32 32v336c0 17.645 14.355 32 32 32h56c4.418 0 8-3.582 8-8s-3.582-8-8-8h-56c-8.822 0-16-7.178-16-16v-272h448v272c0 8.822-7.178 16-16 16h-56c-4.418 0-8 3.582-8 8s3.582 8 8 8h56c17.645 0 32-14.355 32-32 0-14.641 0-319.924 0-336 0-17.645-14.355-32-32-32zm-72-8c0-4.411 3.589-8 8-8s8 3.589 8 8v40c0 4.411-3.589 8-8 8s-8-3.589-8-8zm-288 0c0-4.411 3.589-8 8-8s8 3.589 8 8v40c0 4.411-3.589 8-8 8s-8-3.589-8-8zm-72 88v-48c0-8.822 7.178-16 16-16h40v16c0 13.234 10.766 24 24 24s24-10.766 24-24v-16h240v16c0 13.234 10.767 24 24 24s24-10.766 24-24v-16h40c8.822 0 16 7.178 16 16v48z"/></g></svg>